<?xml version="1.0" encoding="UTF-8" standalone="no"?>
<!-- Created with Inkscape (http://www.inkscape.org/) -->

<svg
   xmlns:dc="http://purl.org/dc/elements/1.1/"
   xmlns:cc="http://creativecommons.org/ns#"
   xmlns:rdf="http://www.w3.org/1999/02/22-rdf-syntax-ns#"
   xmlns:svg="http://www.w3.org/2000/svg"
   xmlns="http://www.w3.org/2000/svg"
   xmlns:sodipodi="http://sodipodi.sourceforge.net/DTD/sodipodi-0.dtd"
   xmlns:inkscape="http://www.inkscape.org/namespaces/inkscape"
   version="1.1"
   id="svg10"
   xml:space="preserve"
   width="282.81567"
   height="304.9343"
   viewBox="0 0 282.81567 304.93429"
   sodipodi:docname="weirwood-media-logo-light.svg"
   inkscape:version="0.92.4 (5da689c313, 2019-01-14)"><metadata
     id="metadata16"><rdf:RDF><cc:Work
         rdf:about=""><dc:format>image/svg+xml</dc:format><dc:type
           rdf:resource="http://purl.org/dc/dcmitype/StillImage" /><dc:title></dc:title></cc:Work></rdf:RDF></metadata><defs
     id="defs14" /><sodipodi:namedview
     pagecolor="#ffffff"
     bordercolor="#666666"
     borderopacity="1"
     objecttolerance="10"
     gridtolerance="10"
     guidetolerance="10"
     inkscape:pageopacity="0"
     inkscape:pageshadow="2"
     inkscape:window-width="1920"
     inkscape:window-height="986"
     id="namedview12"
     showgrid="false"
     fit-margin-top="0"
     fit-margin-left="0"
     fit-margin-right="0"
     fit-margin-bottom="0"
     inkscape:zoom="0.90545884"
     inkscape:cx="113.81417"
     inkscape:cy="93.919896"
     inkscape:window-x="-11"
     inkscape:window-y="-11"
     inkscape:window-maximized="1"
     inkscape:current-layer="g18" /><g
     id="g18"
     inkscape:groupmode="layer"
     inkscape:label="ink_ext_XXXXXX"
     transform="matrix(1.3333333,0,0,-1.3333333,-88.600501,421.33842)"><g
       id="g316"><path
         d="m 143.056,266.218 c 0.021,-0.007 0.041,-0.016 0.062,-0.022 -1.171,5.067 0.51,11.643 -2.912,15.823 -0.64,0.554 -1.326,1.071 -2.064,1.532 6.002,-3.778 3.701,-11.489 4.914,-17.333"
         style="fill:#aa0000;fill-opacity:1;fill-rule:nonzero;stroke:none;stroke-width:0.1"
         id="path22"
         inkscape:connector-curvature="0" /><path
         d="m 132.885,290.366 c -0.036,-3.906 -1.4,-7.978 -1.4,-9.927 0,-0.039 0.007,-0.078 0.007,-0.118 0.065,2.028 1.396,6.066 1.396,9.923 0,0.043 -0.003,0.081 -0.003,0.122"
         style="fill:#aa0000;fill-opacity:1;fill-rule:nonzero;stroke:none;stroke-width:0.1"
         id="path24"
         inkscape:connector-curvature="0" /><path
         d="m 132.773,297.05 c 8.521,0 15.386,-10.861 15.45,-19.767 0,0.049 0.004,0.098 0.004,0.147 0,8.929 -6.893,19.895 -15.454,19.895 -0.662,0 -0.837,-0.287 -0.792,-0.853 0.037,0.381 0.247,0.578 0.792,0.578"
         style="fill:#aa0000;fill-opacity:1;fill-rule:nonzero;stroke:none;stroke-width:0.1"
         id="path26"
         inkscape:connector-curvature="0" /><path
         d="m 131.981,296.472 c -0.085,-0.919 0.88,-2.947 0.904,-6.106 0,0.052 0.003,0.103 0.003,0.153 0,2.944 -0.825,4.919 -0.907,5.953"
         style="fill:#aa0000;fill-opacity:1;fill-rule:nonzero;stroke:none;stroke-width:0.1"
         id="path28"
         inkscape:connector-curvature="0" /><path
         d="m 143.118,265.921 c -0.023,0.097 -0.042,0.197 -0.062,0.297 -6.095,1.798 -11.498,7.69 -11.564,14.103 -10e-4,-0.051 -0.007,-0.107 -0.007,-0.155 0,-6.481 5.474,-12.458 11.633,-14.245"
         style="fill:#aa0000;fill-opacity:1;fill-rule:nonzero;stroke:none;stroke-width:0.1"
         id="path30"
         inkscape:connector-curvature="0" /><path
         d="m 138.142,283.827 c 0.842,-0.529 1.515,-1.14 2.064,-1.808 4.059,-3.524 6.168,-8.791 6.752,-14.064 0.744,2.966 1.269,6.126 1.269,9.199 0,0.044 -0.002,0.087 -0.004,0.129 -0.015,-3.028 -0.532,-6.135 -1.265,-9.053 -0.678,6.105 -3.39,12.207 -8.816,15.597"
         style="fill:#aa0000;fill-opacity:1;fill-rule:nonzero;stroke:none;stroke-width:0.1"
         id="path32"
         inkscape:connector-curvature="0" /><path
         d="m 143.056,266.218 c -1.213,5.844 1.088,13.555 -4.914,17.333 0.738,-0.461 1.424,-0.978 2.064,-1.532 -0.549,0.668 -1.222,1.279 -2.064,1.808 5.426,-3.39 8.138,-9.492 8.816,-15.597 0.733,2.918 1.25,6.025 1.265,9.053 -0.064,8.906 -6.929,19.767 -15.45,19.767 -0.545,0 -0.755,-0.197 -0.792,-0.578 0.082,-1.034 0.907,-3.009 0.907,-5.953 0,-0.05 -0.003,-0.101 -0.003,-0.153 0,-0.041 0.003,-0.079 0.003,-0.122 0,-3.857 -1.331,-7.895 -1.396,-9.923 0.066,-6.413 5.469,-12.305 11.564,-14.103"
         style="fill:#aa0000;fill-opacity:1;fill-rule:nonzero;stroke:none;stroke-width:0.1"
         id="path34"
         inkscape:connector-curvature="0" /><path
         d="m 203.473,267.501 c 4.38,4.149 12.465,6.012 12.685,13.22 -0.176,-6.394 -4.066,-11.825 -8.984,-15.502 2.934,0.862 5.927,2.011 8.576,3.568 7.695,4.522 13.66,16.021 9.325,23.403 -0.948,1.613 -1.885,-1.241 -5.813,-3.548 -3.407,-2.002 -7.698,-2.895 -9.399,-3.896 -5.584,-3.282 -7.964,-11.031 -6.39,-17.245"
         style="fill:#aa0000;fill-opacity:1;fill-rule:nonzero;stroke:none;stroke-width:0.1"
         id="path36"
         inkscape:connector-curvature="0" /><path
         d="m 157.492,278.06 c -1.478,-2.741 -4.007,-5.097 -4.741,-6.467 -2.425,-4.496 -0.867,-10.693 2.743,-14.238 1.254,4.586 5.943,9.147 3.144,14.097 2.493,-4.383 2.096,-9.634 0.28,-14.123 1.626,1.781 3.174,3.778 4.326,5.909 3.342,6.195 2.657,16.385 -3.277,19.592 -1.302,0.699 -0.77,-1.608 -2.475,-4.77"
         style="fill:#aa0000;fill-opacity:1;fill-rule:nonzero;stroke:none;stroke-width:0.1"
         id="path38"
         inkscape:connector-curvature="0" /><path
         d="m 112.231,247.455 c -0.256,-1.457 1.769,-0.229 5.304,-0.86 3.066,-0.545 6.095,-2.212 7.629,-2.481 5.027,-0.896 10.425,2.521 12.666,7.06 -4.748,-0.244 -10.549,2.783 -14.374,-1.424 3.382,3.741 8.494,5.004 13.326,4.683 -2.199,0.989 -4.582,1.833 -6.963,2.258 -6.934,1.238 -16.4,-2.597 -17.588,-9.236"
         style="fill:#aa0000;fill-opacity:1;fill-rule:nonzero;stroke:none;stroke-width:0.1"
         id="path40"
         inkscape:connector-curvature="0" /><path
         d="m 106.652,272.895 c 1.843,-2.51 2.887,-5.806 3.812,-7.057 3.022,-4.117 9.289,-5.365 14.04,-3.625 -3.606,3.098 -5.718,9.292 -11.391,8.883 5.028,0.377 9.603,-2.235 12.881,-5.799 -0.911,2.233 -2.052,4.487 -3.485,6.438 -4.166,5.676 -13.667,9.429 -19.106,5.439 -1.189,-0.876 1.124,-1.385 3.249,-4.279"
         style="fill:#aa0000;fill-opacity:1;fill-rule:nonzero;stroke:none;stroke-width:0.1"
         id="path42"
         inkscape:connector-curvature="0" /><path
         d="m 83.2145,231.396 c -0.2043,-5.248 4.4929,-10.284 9.9421,-11.946 -1.0253,4.807 1.4454,11.135 -3.8867,14.459 4.7395,-2.938 6.968,-7.976 7.3821,-12.945 0.7585,2.377 1.3289,4.922 1.4257,7.409 0.2782,7.232 -5.5343,16.359 -13.173,16.66 -1.6758,0.064 0.0215,-1.832 -0.1199,-5.524 -0.125,-3.199 -1.511,-6.516 -1.5703,-8.113"
         style="fill:#aa0000;fill-opacity:1;fill-rule:nonzero;stroke:none;stroke-width:0.1"
         id="path44"
         inkscape:connector-curvature="0" /><path
         d="m 69.7699,210.748 c 1.6223,-2.76 2.2473,-6.298 3.0578,-7.676 2.6649,-4.527 9.3387,-6.227 14.8231,-4.681 -3.4617,3.488 -4.8016,10.15 -11.0828,10.068 5.575,0.087 10.1738,-2.949 13.207,-6.909 -0.6484,2.412 -1.5441,4.862 -2.8047,7.005 -3.6699,6.237 -13.4941,10.781 -20.084,6.908 -1.4445,-0.852 1.0078,-1.53 2.8836,-4.715"
         style="fill:#aa0000;fill-opacity:1;fill-rule:nonzero;stroke:none;stroke-width:0.1"
         id="path46"
         inkscape:connector-curvature="0" /><path
         d="m 94.3188,184.822 c -1.6004,1.913 -3.4461,3.758 -5.4922,5.172 -5.9539,4.114 -16.7793,4.101 -21.125,-2.186 -0.952,-1.381 1.5586,-0.964 4.5988,-3.063 2.6348,-1.82 4.6922,-4.769 6.0059,-5.677 4.3242,-2.983 11.0925,-1.719 15.416,1.994 -4.6106,1.708 -8.6243,7.185 -14.2883,4.467 5.0187,2.426 10.4668,1.608 14.8848,-0.707"
         style="fill:#aa0000;fill-opacity:1;fill-rule:nonzero;stroke:none;stroke-width:0.1"
         id="path48"
         inkscape:connector-curvature="0" /><path
         d="m 112.804,183.679 c 0.526,2.439 0.846,5.03 0.699,7.514 -0.422,7.224 -7.095,15.748 -14.726,15.303 -1.675,-0.1 0.1992,-1.821 0.416,-5.509 0.1855,-3.199 -0.8664,-6.634 -0.7735,-8.228 0.3086,-5.245 5.4705,-9.801 11.0595,-10.925 -1.492,4.685 0.353,11.221 -5.277,14.012 5.002,-2.464 7.71,-7.26 8.602,-12.167"
         style="fill:#aa0000;fill-opacity:1;fill-rule:nonzero;stroke:none;stroke-width:0.1"
         id="path50"
         inkscape:connector-curvature="0" /><path
         d="m 108.574,166.783 c -3.067,-6.55 -1.273,-17.227 5.645,-20.473 1.518,-0.715 0.692,1.695 2.263,5.039 1.365,2.898 3.926,5.414 4.607,6.859 2.227,4.759 -0.134,11.225 -4.506,14.88 -0.927,-4.831 -5.664,-9.693 -2.051,-14.829 -3.219,4.549 -3.312,10.058 -1.756,14.797 -1.626,-1.896 -3.142,-4.02 -4.202,-6.273"
         style="fill:#aa0000;fill-opacity:1;fill-rule:nonzero;stroke:none;stroke-width:0.1"
         id="path52"
         inkscape:connector-curvature="0" /><path
         d="m 99.6441,172.672 c -2.4941,-0.152 -5.0734,-0.547 -7.4257,-1.356 -6.8418,-2.359 -13.2461,-11.083 -10.7637,-18.31 0.5516,-1.587 1.7031,0.683 5.1941,1.89 3.0293,1.04 6.6282,0.952 8.1348,1.472 4.968,1.712 7.9564,7.913 7.5324,13.594 -4.1133,-2.698 -10.9035,-2.688 -12.0683,-8.858 1.0195,5.481 4.9128,9.382 9.3964,11.568"
         style="fill:#aa0000;fill-opacity:1;fill-rule:nonzero;stroke:none;stroke-width:0.1"
         id="path54"
         inkscape:connector-curvature="0" /><path
         d="m 142.732,221.343 c 1.73,1.68 3.393,3.584 4.662,5.641 3.707,5.989 3.629,16.203 -2.105,19.751 -1.261,0.775 -0.868,-1.56 -2.754,-4.611 -1.637,-2.652 -4.302,-4.854 -5.118,-6.18 -2.685,-4.344 -1.495,-10.623 1.899,-14.378 1.526,4.507 6.475,8.784 3.975,13.889 2.228,-4.521 1.521,-9.741 -0.559,-14.112"
         style="fill:#aa0000;fill-opacity:1;fill-rule:nonzero;stroke:none;stroke-width:0.1"
         id="path56"
         inkscape:connector-curvature="0" /><path
         d="m 134.396,207.606 c -2.877,3.576 -3.183,9.927 -9.373,10.397 5.494,-0.404 9.56,-3.644 11.936,-7.619 -0.272,2.315 -0.779,4.684 -1.693,6.8 -2.661,6.168 -11.636,11.274 -18.71,8.222 -1.551,-0.675 0.764,-1.524 2.117,-4.664 1.18,-2.729 1.258,-6.097 1.85,-7.458 1.931,-4.472 8.243,-6.645 13.873,-5.678"
         style="fill:#aa0000;fill-opacity:1;fill-rule:nonzero;stroke:none;stroke-width:0.1"
         id="path58"
         inkscape:connector-curvature="0" /><path
         d="m 158.55,213.12 c -1.931,-1.725 -4.563,-2.868 -5.527,-3.731 -3.162,-2.834 -3.736,-8.062 -1.973,-11.792 2.296,3.22 7.224,5.486 6.485,10.086 0.664,-4.075 -1.152,-8.041 -3.849,-11.032 1.768,0.94 3.538,2.071 5.034,3.411 4.365,3.901 6.769,11.995 3.107,16.086 -0.802,0.898 -1.056,-1.036 -3.277,-3.028"
         style="fill:#aa0000;fill-opacity:1;fill-rule:nonzero;stroke:none;stroke-width:0.1"
         id="path60"
         inkscape:connector-curvature="0" /><path
         d="m 194.756,259.923 c -0.492,4.731 2.229,10.681 -2.168,14.281 3.911,-3.184 5.441,-8.222 5.369,-13.065 0.871,2.25 1.591,4.673 1.891,7.073 0.873,6.985 -3.447,16.24 -10.139,17.079 -1.469,0.182 -0.141,-1.776 -0.585,-5.34 -0.383,-3.092 -1.888,-6.203 -2.078,-7.745 -0.632,-5.07 3.061,-10.282 7.71,-12.283"
         style="fill:#aa0000;fill-opacity:1;fill-rule:nonzero;stroke:none;stroke-width:0.1"
         id="path62"
         inkscape:connector-curvature="0" /><path
         d="m 214.116,238.552 c 2.988,6.372 1.741,16.508 -4.367,19.377 -1.338,0.626 -0.676,-1.646 -2.205,-4.899 -1.319,-2.822 -3.711,-5.312 -4.371,-6.722 -2.169,-4.626 -0.268,-10.724 3.536,-14.064 0.992,4.65 5.421,9.467 2.353,14.25 2.732,-4.237 2.629,-9.499 1.067,-14.084 1.52,1.869 2.957,3.951 3.987,6.142"
         style="fill:#aa0000;fill-opacity:1;fill-rule:nonzero;stroke:none;stroke-width:0.1"
         id="path64"
         inkscape:connector-curvature="0" /><path
         d="m 222.295,235.491 c -0.98,1.099 -1.265,-1.251 -3.937,-3.649 -2.321,-2.083 -5.498,-3.44 -6.65,-4.479 -3.806,-3.411 -4.441,-9.766 -2.247,-14.328 2.731,3.894 8.694,6.596 7.734,12.198 0.862,-4.967 -1.287,-9.771 -4.517,-13.381 2.131,1.126 4.261,2.481 6.069,4.095 5.244,4.699 8.057,14.515 3.548,19.544"
         style="fill:#aa0000;fill-opacity:1;fill-rule:nonzero;stroke:none;stroke-width:0.1"
         id="path66"
         inkscape:connector-curvature="0" /><path
         d="m 248.733,238.252 c 3.048,3.649 9.216,5.841 8.733,11.504 0.438,-5.024 -2.111,-9.629 -5.633,-12.953 2.22,0.943 4.46,2.111 6.397,3.568 5.618,4.243 9.247,13.786 5.181,19.177 -0.889,1.178 -1.37,-1.141 -4.237,-3.304 -2.485,-1.88 -5.765,-2.965 -7.005,-3.903 -4.079,-3.08 -5.243,-9.361 -3.436,-14.089"
         style="fill:#aa0000;fill-opacity:1;fill-rule:nonzero;stroke:none;stroke-width:0.1"
         id="path68"
         inkscape:connector-curvature="0" /><path
         d="m 260.129,202.996 c 3.503,3.216 9.904,4.578 10.169,10.253 -0.221,-5.037 -3.356,-9.267 -7.283,-12.099 2.318,0.642 4.698,1.508 6.808,2.696 6.126,3.465 10.98,12.449 7.662,18.327 -0.732,1.286 -1.507,-0.949 -4.633,-2.719 -2.712,-1.534 -6.106,-2.18 -7.457,-2.945 -4.449,-2.517 -6.434,-8.59 -5.266,-13.513"
         style="fill:#aa0000;fill-opacity:1;fill-rule:nonzero;stroke:none;stroke-width:0.1"
         id="path70"
         inkscape:connector-curvature="0" /><path
         d="m 272.293,194.934 c 0.085,1.477 -1.785,0.023 -5.368,0.236 -3.111,0.185 -6.311,1.485 -7.858,1.576 -5.107,0.303 -10.072,-3.718 -11.77,-8.487 4.693,0.8 10.806,-1.534 14.114,3.088 -2.928,-4.108 -7.857,-5.958 -12.691,-6.203 2.3,-0.722 4.762,-1.286 7.18,-1.433 7.028,-0.42 15.99,4.486 16.393,11.223"
         style="fill:#aa0000;fill-opacity:1;fill-rule:nonzero;stroke:none;stroke-width:0.1"
         id="path72"
         inkscape:connector-curvature="0" /><path
         d="m 239.871,190.196 c 1.929,1.441 3.825,3.11 5.358,4.987 4.451,5.456 5.704,15.594 0.478,19.862 -1.151,0.928 -1.064,-1.437 -3.332,-4.22 -1.965,-2.414 -4.893,-4.254 -5.875,-5.455 -3.231,-3.965 -2.863,-10.344 0.009,-14.508 2.095,4.275 7.566,7.867 5.743,13.254 1.628,-4.774 0.244,-9.858 -2.381,-13.92"
         style="fill:#aa0000;fill-opacity:1;fill-rule:nonzero;stroke:none;stroke-width:0.1"
         id="path74"
         inkscape:connector-curvature="0" /><path
         d="m 238.002,232.948 c 1.338,-3.925 0.199,-8.104 -1.958,-11.443 1.588,1.185 3.146,2.557 4.408,4.1 3.656,4.485 4.688,12.82 0.39,16.328 -0.946,0.763 -0.875,-1.181 -2.739,-3.469 -1.619,-1.985 -4.024,-3.497 -4.831,-4.484 -2.655,-3.26 -2.355,-8.504 0.01,-11.926 1.722,3.512 6.217,6.467 4.72,10.894"
         style="fill:#aa0000;fill-opacity:1;fill-rule:nonzero;stroke:none;stroke-width:0.1"
         id="path76"
         inkscape:connector-curvature="0" /><path
         d="m 231.156,175.266 c 0.947,-2.215 2.122,-4.452 3.585,-6.386 4.246,-5.613 13.801,-9.228 19.183,-5.155 1.173,0.897 -1.148,1.373 -3.314,4.233 -1.881,2.483 -2.976,5.759 -3.912,6.997 -3.093,4.077 -9.372,5.228 -14.099,3.419 3.657,-3.047 5.856,-9.206 11.522,-8.712 -5.022,-0.451 -9.634,2.093 -12.965,5.604"
         style="fill:#aa0000;fill-opacity:1;fill-rule:nonzero;stroke:none;stroke-width:0.1"
         id="path78"
         inkscape:connector-curvature="0" /><path
         d="m 239,274.144 c -1.48,-4.821 -5.574,-8.129 -10.089,-9.885 2.414,0.037 4.927,0.279 7.269,0.902 6.8,1.82 13.749,9.302 12.012,15.821 -0.383,1.428 -1.695,-0.543 -5.166,-1.469 -3.01,-0.807 -6.457,-0.581 -7.962,-0.986 -4.936,-1.318 -8.379,-6.702 -8.48,-11.759 4.196,2.232 10.733,1.947 12.416,7.376"
         style="fill:#aa0000;fill-opacity:1;fill-rule:nonzero;stroke:none;stroke-width:0.1"
         id="path80"
         inkscape:connector-curvature="0" /><path
         d="m 221.634,238.502 c 2.141,1.119 4.276,2.466 6.085,4.077 5.248,4.685 8.087,14.496 3.602,19.535 -0.984,1.101 -1.273,-1.248 -3.946,-3.638 -2.328,-2.076 -5.511,-3.427 -6.671,-4.464 -3.809,-3.4 -4.462,-9.756 -2.279,-14.321 2.743,3.884 8.708,6.575 7.77,12.178 0.847,-4.971 -1.319,-9.77 -4.561,-13.367"
         style="fill:#aa0000;fill-opacity:1;fill-rule:nonzero;stroke:none;stroke-width:0.1"
         id="path82"
         inkscape:connector-curvature="0" /><path
         d="m 175.727,278.958 c 1.127,4.133 5.353,8.244 2.83,12.704 2.249,-3.951 1.886,-8.683 0.252,-12.729 1.465,1.606 2.859,3.407 3.898,5.326 3.009,5.584 2.399,14.764 -2.954,17.654 -1.174,0.632 -0.695,-1.449 -2.227,-4.297 -1.329,-2.471 -3.612,-4.595 -4.271,-5.827 -2.186,-4.053 -0.778,-9.637 2.472,-12.831"
         style="fill:#aa0000;fill-opacity:1;fill-rule:nonzero;stroke:none;stroke-width:0.1"
         id="path84"
         inkscape:connector-curvature="0" /><path
         d="m 210.197,299.527 c 0.321,-4.533 -2.044,-8.644 -5.263,-11.591 2.01,0.817 4.05,1.841 5.813,3.123 5.123,3.737 8.532,12.284 4.958,17.198 -0.787,1.079 -1.253,-1.005 -3.866,-2.914 -2.27,-1.652 -5.242,-2.583 -6.368,-3.413 -3.724,-2.711 -4.866,-8.353 -3.308,-12.639 2.796,3.242 8.386,5.123 8.034,10.236"
         style="fill:#aa0000;fill-opacity:1;fill-rule:nonzero;stroke:none;stroke-width:0.1"
         id="path86"
         inkscape:connector-curvature="0" /><path
         d="m 169.989,307.271 c 0.851,-4.031 -0.765,-8.019 -3.289,-11.061 1.704,0.983 3.408,2.153 4.834,3.524 4.134,3.99 6.138,12.087 2.312,16.056 -0.836,0.869 -0.996,-1.06 -3.105,-3.097 -1.832,-1.767 -4.386,-2.969 -5.296,-3.854 -3.003,-2.894 -3.328,-8.103 -1.401,-11.757 2.113,3.258 6.892,5.641 5.945,10.189"
         style="fill:#aa0000;fill-opacity:1;fill-rule:nonzero;stroke:none;stroke-width:0.1"
         id="path88"
         inkscape:connector-curvature="0" /><path
         d="m 148.464,293.221 c 1.292,-3.965 5.836,-6.533 9.966,-6.395 -2.01,3.321 -2.065,8.664 -6.568,9.798 3.997,-0.996 6.877,-4.19 8.511,-7.792 -0.137,1.963 -0.447,4.007 -1.057,5.889 -1.781,5.46 -8.191,10.802 -13.434,9.095 -1.146,-0.373 0.522,-1.361 1.43,-4.149 0.788,-2.418 0.755,-5.242 1.152,-6.446"
         style="fill:#aa0000;fill-opacity:1;fill-rule:nonzero;stroke:none;stroke-width:0.1"
         id="path90"
         inkscape:connector-curvature="0" /><path
         d="m 91.4047,259.792 c 1.6562,-1.932 2.709,-4.551 3.5383,-5.511 2.7129,-3.165 7.896,-3.792 11.658,-2.08 -3.132,2.296 -5.234,7.209 -9.826,6.527 4.074,0.616 7.959,-1.23 10.85,-3.93 -0.882,1.76 -1.953,3.53 -3.238,5.033 -3.742,4.36 -11.7097,6.832 -15.8972,3.243 -0.914,-0.785 1.0059,-1.057 2.9149,-3.282"
         style="fill:#aa0000;fill-opacity:1;fill-rule:nonzero;stroke:none;stroke-width:0.1"
         id="path92"
         inkscape:connector-curvature="0" /><path
         d="m 189.779,302.314 c 1.071,-3.275 4.819,-5.391 8.228,-5.279 -1.659,2.742 -1.708,7.152 -5.419,8.087 3.297,-0.822 5.673,-3.46 7.02,-6.431 -0.112,1.62 -0.368,3.308 -0.871,4.859 -1.474,4.509 -6.762,8.916 -11.082,7.508 -0.949,-0.308 0.425,-1.123 1.177,-3.424 0.649,-1.996 0.622,-4.327 0.947,-5.32"
         style="fill:#aa0000;fill-opacity:1;fill-rule:nonzero;stroke:none;stroke-width:0.1"
         id="path94"
         inkscape:connector-curvature="0" /><path
         d="m 112.574,287.729 c 1.776,-1.128 3.234,-2.946 4.119,-3.506 2.904,-1.848 7.141,-1.102 9.706,1.152 -3.026,1.065 -5.866,4.437 -9.326,2.8 3.067,1.461 6.581,0.936 9.508,-0.502 -1.115,1.179 -2.385,2.317 -3.762,3.199 -4.005,2.542 -10.885,2.583 -13.326,-1.252 -0.535,-0.837 1.042,-0.595 3.081,-1.891"
         style="fill:#aa0000;fill-opacity:1;fill-rule:nonzero;stroke:none;stroke-width:0.1"
         id="path96"
         inkscape:connector-curvature="0" /><path
         d="m 119.623,233.241 c 0.283,0.17 0.558,0.351 0.813,0.552 -2.253,0.945 -4.323,3.215 -6.751,3.61 -0.807,-0.026 -1.615,-0.155 -2.413,-0.407 3.43,1.079 5.718,-2.147 8.351,-3.755"
         style="fill:#aa0000;fill-opacity:1;fill-rule:nonzero;stroke:none;stroke-width:0.1"
         id="path98"
         inkscape:connector-curvature="0" /><path
         d="m 117.33,238.888 c 0.753,-0.645 1.452,-1.383 2.1,-2.154 0.453,-0.199 0.897,-0.418 1.324,-0.659 -1.046,1.243 -2.249,2.454 -3.569,3.413 -2.178,1.567 -5.319,2.388 -8.119,2.141 2.9,0.126 6.133,-0.94 8.264,-2.741"
         style="fill:#aa0000;fill-opacity:1;fill-rule:nonzero;stroke:none;stroke-width:0.1"
         id="path100"
         inkscape:connector-curvature="0" /><path
         d="m 106.754,237.151 c -1.453,1.235 -2.748,1.478 -2.92,1.897 -0.008,-0.012 -0.018,-0.02 -0.027,-0.032 -0.584,-0.805 1.004,-0.655 2.966,-2.068 0.419,-0.303 0.816,-0.646 1.191,-1.001 -0.376,0.423 -0.776,0.837 -1.21,1.204"
         style="fill:#aa0000;fill-opacity:1;fill-rule:nonzero;stroke:none;stroke-width:0.1"
         id="path102"
         inkscape:connector-curvature="0" /><path
         d="m 182.153,262.215 c 0.486,1.278 0.888,2.66 1.051,4.022 0.464,3.966 -2.028,9.199 -5.826,9.648 -0.835,0.097 -0.07,-1.01 -0.308,-3.032 -0.21,-1.756 -1.051,-3.527 -1.151,-4.402 -0.337,-2.879 1.781,-5.82 4.427,-6.937 -0.303,2.681 1.219,6.068 -1.29,8.095 2.233,-1.791 3.116,-4.646 3.097,-7.394"
         style="fill:#aa0000;fill-opacity:1;fill-rule:nonzero;stroke:none;stroke-width:0.1"
         id="path104"
         inkscape:connector-curvature="0" /><path
         d="m 197.105,199.239 c -0.25,1.604 -0.651,3.265 -1.285,4.768 -1.852,4.366 -7.501,8.3 -11.687,6.528 -0.919,-0.391 0.52,-1.086 1.469,-3.312 0.816,-1.933 0.985,-4.257 1.401,-5.217 1.345,-3.172 5.259,-4.96 8.65,-4.555 -1.89,2.589 -2.317,6.98 -6.096,7.596 3.355,-0.536 5.952,-2.962 7.548,-5.808"
         style="fill:#aa0000;fill-opacity:1;fill-rule:nonzero;stroke:none;stroke-width:0.1"
         id="path106"
         inkscape:connector-curvature="0" /><path
         d="m 195.671,219.353 c 0.512,1.54 0.912,3.202 1.033,4.828 0.338,4.732 -2.897,10.805 -7.43,11.137 -0.996,0.071 -0.029,-1.203 -0.201,-3.618 -0.156,-2.092 -1.061,-4.238 -1.131,-5.282 -0.247,-3.438 2.425,-6.813 5.625,-7.997 -0.506,3.167 1.118,7.268 -1.964,9.54 2.741,-2.005 3.946,-5.348 4.068,-8.608"
         style="fill:#aa0000;fill-opacity:1;fill-rule:nonzero;stroke:none;stroke-width:0.1"
         id="path108"
         inkscape:connector-curvature="0" /><path
         d="m 160.919,175.046 c 1.033,1.252 2.006,2.656 2.711,4.128 2.027,4.288 1.214,11.122 -2.889,13.071 -0.904,0.43 -0.465,-1.107 -1.5,-3.296 -0.9,-1.895 -2.526,-3.566 -2.969,-4.512 -1.479,-3.116 -0.213,-7.227 2.345,-9.49 0.679,3.131 3.675,6.366 1.629,9.6 1.824,-2.865 1.738,-6.418 0.673,-9.501"
         style="fill:#aa0000;fill-opacity:1;fill-rule:nonzero;stroke:none;stroke-width:0.1"
         id="path110"
         inkscape:connector-curvature="0" /><path
         d="m 113.181,217.214 c -1.28,4.568 -6.374,9.193 -10.754,7.974 -0.96,-0.265 0.378,-1.136 1.027,-3.472 0.565,-2.018 0.431,-4.345 0.721,-5.351 0.924,-3.322 4.574,-5.597 7.99,-5.632 -1.537,2.812 -1.395,7.22 -5.06,8.32 3.256,-0.967 5.516,-3.709 6.734,-6.734 -0.045,1.622 -0.226,3.318 -0.658,4.895"
         style="fill:#aa0000;fill-opacity:1;fill-rule:nonzero;stroke:none;stroke-width:0.1"
         id="path112"
         inkscape:connector-curvature="0" /><path
         d="m 109.066,241.629 c -2.031,-0.089 -3.899,-0.756 -5.11,-2.182 -0.137,-0.162 -0.168,-0.286 -0.122,-0.399 1.159,1.579 3.094,2.391 5.232,2.581"
         style="fill:#aa0000;fill-opacity:1;fill-rule:nonzero;stroke:none;stroke-width:0.1"
         id="path114"
         inkscape:connector-curvature="0" /><path
         d="m 111.291,237.132 c 0.843,0.341 1.635,0.395 2.394,0.271 2.462,0.077 4.899,-0.827 6.941,-2.196 -0.372,0.517 -0.776,1.028 -1.196,1.527 -2.556,1.117 -5.469,1.484 -8.139,0.398"
         style="fill:#aa0000;fill-opacity:1;fill-rule:nonzero;stroke:none;stroke-width:0.1"
         id="path116"
         inkscape:connector-curvature="0" /><path
         d="m 120.131,232.953 c -0.171,0.088 -0.339,0.185 -0.508,0.288 -2.682,-1.616 -6.417,-1.853 -8.943,-0.032 -0.641,0.459 -1.569,1.652 -2.716,2.738 1.008,-1.136 1.806,-2.332 2.392,-2.819 2.632,-2.232 6.93,-2.064 9.775,-0.175"
         style="fill:#aa0000;fill-opacity:1;fill-rule:nonzero;stroke:none;stroke-width:0.1"
         id="path118"
         inkscape:connector-curvature="0" /><path
         d="m 110.68,233.209 c 2.526,-1.821 6.261,-1.584 8.943,0.032 -2.633,1.608 -4.921,4.834 -8.351,3.755 0.798,0.252 1.606,0.381 2.413,0.407 -0.759,0.124 -1.551,0.07 -2.394,-0.271 2.67,1.086 5.583,0.719 8.139,-0.398 -0.648,0.771 -1.347,1.509 -2.1,2.154 -2.131,1.801 -5.364,2.867 -8.264,2.741 -2.138,-0.19 -4.073,-1.002 -5.232,-2.581 0.172,-0.419 1.467,-0.662 2.92,-1.897 0.434,-0.367 0.834,-0.781 1.21,-1.204 1.147,-1.086 2.075,-2.279 2.716,-2.738"
         style="fill:#aa0000;fill-opacity:1;fill-rule:nonzero;stroke:none;stroke-width:0.1"
         id="path120"
         inkscape:connector-curvature="0" /><path
         d="m 127.82,162.94 c -1.771,-4.398 -0.554,-11.173 3.654,-12.877 0.927,-0.374 0.391,1.132 1.306,3.378 0.785,1.943 2.307,3.707 2.691,4.68 1.295,3.194 -0.205,7.227 -2.894,9.336 -0.494,-3.167 -3.298,-6.571 -1.065,-9.68 -1.991,2.753 -2.105,6.306 -1.231,9.444 -0.949,-1.311 -1.843,-2.766 -2.461,-4.281"
         style="fill:#aa0000;fill-opacity:1;fill-rule:nonzero;stroke:none;stroke-width:0.1"
         id="path122"
         inkscape:connector-curvature="0" /><path
         d="m 228.558,203.229 c 1.078,1.218 2.095,2.587 2.845,4.037 2.167,4.22 1.575,11.08 -2.469,13.161 -0.886,0.454 -0.492,-1.095 -1.603,-3.246 -0.958,-1.868 -2.634,-3.486 -3.115,-4.419 -1.57,-3.064 -0.437,-7.216 2.044,-9.564 0.782,3.111 3.881,6.247 1.93,9.545 1.74,-2.918 1.53,-6.465 0.368,-9.514"
         style="fill:#aa0000;fill-opacity:1;fill-rule:nonzero;stroke:none;stroke-width:0.1"
         id="path124"
         inkscape:connector-curvature="0" /><path
         d="m 207.127,172.761 c -1.293,-0.978 -2.565,-2.119 -3.586,-3.391 -2.958,-3.706 -3.742,-10.546 -0.197,-13.387 0.779,-0.624 0.704,0.973 2.215,2.859 1.316,1.641 3.276,2.895 3.934,3.715 2.145,2.69 1.86,6.984 -0.106,9.777 -1.38,-2.894 -5.041,-5.35 -3.787,-8.971 -1.123,3.207 -0.221,6.642 1.527,9.398"
         style="fill:#aa0000;fill-opacity:1;fill-rule:nonzero;stroke:none;stroke-width:0.1"
         id="path126"
         inkscape:connector-curvature="0" /><path
         d="m 257.046,217.046 c 1.247,1.043 2.458,2.245 3.413,3.565 2.78,3.847 3.224,10.717 -0.459,13.381 -0.809,0.584 -0.657,-1.008 -2.073,-2.969 -1.232,-1.702 -3.13,-3.051 -3.743,-3.9 -2.015,-2.793 -1.517,-7.067 0.583,-9.762 1.239,2.959 4.774,5.594 3.342,9.148 1.281,-3.148 0.546,-6.623 -1.063,-9.463"
         style="fill:#aa0000;fill-opacity:1;fill-rule:nonzero;stroke:none;stroke-width:0.1"
         id="path128"
         inkscape:connector-curvature="0" /><path
         d="m 228.518,168.05 c 0.196,3.919 -2.919,7.7 -6.597,8.977 0.645,-3.591 -1.114,-8.299 2.458,-10.813 -3.172,2.22 -4.62,5.997 -4.834,9.712 -0.543,-1.769 -0.962,-3.669 -1.063,-5.522 -0.276,-5.397 3.541,-12.246 8.715,-12.518 1.133,-0.061 0.002,1.368 0.145,4.121 0.127,2.39 1.115,4.853 1.176,6.043"
         style="fill:#aa0000;fill-opacity:1;fill-rule:nonzero;stroke:none;stroke-width:0.1"
         id="path130"
         inkscape:connector-curvature="0" /><path
         d="m 245.554,263.022 c -1.621,-1.333 -3.803,-2.156 -4.605,-2.824 -2.661,-2.187 -3.271,-6.448 -1.922,-9.586 1.949,2.545 6.039,4.195 5.555,7.995 0.437,-3.367 -1.152,-6.543 -3.433,-8.881 1.469,0.695 2.951,1.548 4.213,2.58 3.661,3.014 5.838,9.547 2.95,13.06 -0.634,0.768 -0.892,-0.808 -2.758,-2.344"
         style="fill:#aa0000;fill-opacity:1;fill-rule:nonzero;stroke:none;stroke-width:0.1"
         id="path132"
         inkscape:connector-curvature="0" /><path
         d="m 211.228,198.646 c 0,-3.289 2.663,-5.954 5.952,-5.954 3.291,0 5.954,2.665 5.954,5.954 0,3.287 -2.663,5.953 -5.954,5.953 -3.289,0 -5.952,-2.666 -5.952,-5.953"
         style="fill:#999999;fill-opacity:1;fill-rule:nonzero;stroke:none;stroke-width:0.1"
         id="path136"
         inkscape:connector-curvature="0" /><g
         style="fill:#f9f9f9"
         id="g253"><path
           inkscape:connector-curvature="0"
           id="path134"
           style="fill:#f9f9f9;fill-opacity:1;fill-rule:nonzero;stroke:none;stroke-width:0.1"
           d="m 172.112,259.835 c -4.283,0 -7.754,-3.472 -7.754,-7.755 0,-4.282 3.471,-7.754 7.754,-7.754 4.283,0 7.754,3.472 7.754,7.754 0,4.283 -3.471,7.755 -7.754,7.755" /><path
           inkscape:connector-curvature="0"
           id="path138"
           style="fill:#f9f9f9;fill-opacity:1;fill-rule:nonzero;stroke:none;stroke-width:0.1"
           d="m 127.291,184.694 c 3.156,0 5.716,2.559 5.716,5.716 0,3.157 -2.56,5.716 -5.716,5.716 -3.155,0 -5.714,-2.559 -5.714,-5.716 0,-3.157 2.559,-5.716 5.714,-5.716" /><path
           inkscape:connector-curvature="0"
           id="path140"
           style="fill:#f9f9f9;fill-opacity:1;fill-rule:nonzero;stroke:none;stroke-width:0.1"
           d="m 191.3,91.9762 c -12.656,19.3178 -9.098,42.1838 -8.038,48.0348 5.536,30.547 31.38,43.282 40.718,43.724 8.691,0.412 14.48,-1.297 20.082,-3.695 9.013,-3.861 -6.954,7.608 -21.3,7.608 -32.531,0 -15.611,-15.091 -15.611,17.323 0,10.723 -3.259,21.506 -9.877,30.155 2.79,-6.697 5.438,-13.933 4.959,-21.236 -1.114,-16.929 -22.692,-69.625 -20.158,-4.514 0.866,22.234 7.087,43.681 30.487,52.926 -19.107,-0.849 -35.245,-18.684 -40.337,-36.093 -6.796,17.409 -20.809,28.874 -35.243,39.491 20.897,-26.402 34.242,-38.896 34.31,-76.584 0.091,-53.565 -22.994,-16.757 -22.994,8.259 0,9.502 2.336,19.108 6.515,27.135 -7.708,-6.45 -14.955,-17.131 -14.852,-31.018 0.249,-33.078 14.986,-10.631 -25.146,-13.682 -56.4279,-4.285 43.154,4.704 46.518,-41.95 0.194,-2.669 5.329,-26.555 -5.691,-50.5569 1.608,0.0059 7.197,4.6731 13.782,5.734 10.985,1.7719 15.005,-0.9391 21.876,-1.0609" /></g></g><g
       id="g148" /></g></svg>